<svg width="37" height="36" viewBox="0 0 37 36" fill="none" xmlns="http://www.w3.org/2000/svg">
<path d="M16.7227 19.6949L13.8893 16.792C13.621 16.505 13.29 16.3616 12.8964 16.3616C12.5028 16.3616 12.1579 16.5005 11.8618 16.7782C11.5746 17.0652 11.431 17.4077 11.431 17.8057C11.431 18.2041 11.5746 18.5467 11.8618 18.8337L15.7506 22.6949C16.0283 22.9727 16.3524 23.1116 16.7227 23.1116C17.0932 23.1116 17.4174 22.9727 17.6952 22.6949L25.1393 15.2782C25.4171 15.0005 25.5538 14.6671 25.5493 14.2782C25.5446 13.8893 25.3988 13.556 25.1118 13.2782C24.834 13.0188 24.5029 12.8914 24.1185 12.8962C23.7343 12.9009 23.4127 13.0328 23.1535 13.292L16.7227 19.6949ZM12.2506 34.417L9.72266 30.1116L4.75057 29.0837C4.40807 29.0189 4.12571 28.836 3.90349 28.5349C3.68127 28.2341 3.59793 27.9124 3.65349 27.5699L4.19516 22.667L0.958906 18.917C0.718073 18.667 0.597656 18.3614 0.597656 18.0003C0.597656 17.6392 0.718073 17.3337 0.958906 17.0837L4.19516 13.3616L3.65349 8.45865C3.59793 8.11615 3.68127 7.79435 3.90349 7.49324C4.12571 7.1924 4.40807 7.00962 4.75057 6.9449L9.72266 5.91699L12.2506 1.58365C12.4359 1.2781 12.6952 1.0674 13.0285 0.95157C13.3618 0.836014 13.6952 0.852264 14.0285 1.00032L18.5006 3.02824L22.9727 1.00032C23.306 0.852264 23.6393 0.83143 23.9727 0.937819C24.306 1.04421 24.5653 1.25018 24.7506 1.55574L27.306 5.91699L32.2506 6.9449C32.5931 7.00962 32.8754 7.1924 33.0977 7.49324C33.3199 7.79435 33.4032 8.11615 33.3477 8.45865L32.806 13.3616L36.0422 17.0837C36.2831 17.3337 36.4035 17.6392 36.4035 18.0003C36.4035 18.3614 36.2831 18.667 36.0422 18.917L32.806 22.667L33.3477 27.5699C33.4032 27.9124 33.3199 28.2341 33.0977 28.5349C32.8754 28.836 32.5931 29.0189 32.2506 29.0837L27.306 30.1116L24.7506 34.4449C24.5653 34.7505 24.306 34.9564 23.9727 35.0628C23.6393 35.1692 23.306 35.1484 22.9727 35.0003L18.5006 32.9724L14.0285 35.0003C13.6952 35.1484 13.3618 35.1646 13.0285 35.0491C12.6952 34.9332 12.4359 34.7225 12.2506 34.417ZM14.1118 31.8891L18.5006 30.0282L23.0006 31.8891L25.6393 27.7782L30.4172 26.5837L29.9452 21.7224L33.2227 18.0003L29.9452 14.1949L30.4172 9.33365L25.6393 8.2224L22.9172 4.11157L18.5006 5.9724L14.0006 4.11157L11.3618 8.2224L6.58391 9.33365L7.05599 14.1949L3.77849 18.0003L7.05599 21.7224L6.58391 26.667L11.3618 27.7782L14.1118 31.8891Z" fill="#007856"/>
</svg>
