<svg width="32" height="32" viewBox="0 0 32 32" fill="none" xmlns="http://www.w3.org/2000/svg">
<mask id="mask0_472_3981" style="mask-type:alpha" maskUnits="userSpaceOnUse" x="0" y="0" width="32" height="32">
<rect width="32" height="32" fill="#D9D9D9"/>
</mask>
<g mask="url(#mask0_472_3981)">
<path d="M16.0666 26.6667C13.0888 26.6667 10.5555 25.6334 8.46659 23.5667C6.3777 21.5 5.33325 18.9778 5.33325 16V15.7667L3.19992 17.9L1.33325 16.0334L6.66659 10.7L11.9999 16.0334L10.1333 17.9L7.99992 15.7667V16C7.99992 18.2223 8.78325 20.1112 10.3499 21.6667C11.9166 23.2223 13.8221 24 16.0666 24C16.6444 24 17.211 23.9334 17.7666 23.8C18.3221 23.6667 18.8666 23.4667 19.3999 23.2L21.3999 25.2C20.5555 25.6889 19.6888 26.0556 18.7999 26.3C17.911 26.5445 16.9999 26.6667 16.0666 26.6667ZM25.3333 21.3L19.9999 15.9667L21.8666 14.1L23.9999 16.2334V16C23.9999 13.7778 23.2166 11.8889 21.6499 10.3334C20.0833 8.77782 18.1777 8.00004 15.9333 8.00004C15.3555 8.00004 14.7888 8.06671 14.2333 8.20004C13.6777 8.33337 13.1333 8.53337 12.5999 8.80004L10.5999 6.80004C11.4444 6.31115 12.311 5.94449 13.1999 5.70004C14.0888 5.4556 14.9999 5.33337 15.9333 5.33337C18.911 5.33337 21.4444 6.36671 23.5333 8.43337C25.6221 10.5 26.6666 13.0223 26.6666 16V16.2334L28.7999 14.1L30.6666 15.9667L25.3333 21.3Z" fill="#7C7C7C"/>
</g>
</svg>
